<svg width="451" height="322" xmlns="http://www.w3.org/2000/svg" xmlns:xlink="http://www.w3.org/1999/xlink" xml:space="preserve" overflow="hidden"><g transform="translate(-182 -96)"><g><path d="M287.954 23.1005 287.649 23.1005C275.475 23.1005 264.71 29.542 258.517 39.0472 252.324 29.542 241.558 23.1005 229.386 23.1005L229.079 23.1005C219.943 23.1876 211.212 26.8765 204.781 33.3656 198.35 39.8548 194.739 48.6199 194.734 57.7559 194.734 69.1008 199.703 85.1986 209.392 98.4446 227.852 123.685 258.517 145.767 258.517 145.767 258.517 145.767 289.182 123.689 307.639 98.4446 317.331 85.1986 322.296 69.1008 322.296 57.7559 322.292 48.6205 318.681 39.8561 312.252 33.3671 305.821 26.878 297.09 23.1887 287.954 23.1005ZM283.577 100.387C282.192 100.381 280.84 99.9567 279.698 99.1691 278.558 98.3813 277.682 97.267 277.184 95.9725L269.907 95.9725C269.428 95.9695 268.962 95.8169 268.574 95.5361 268.185 95.2553 267.893 94.8601 267.741 94.4059L265.506 87.6707 258.431 112.388C258.293 112.864 258.006 113.282 257.609 113.58 257.214 113.878 256.733 114.04 256.237 114.041L256.093 114.041C255.578 114.015 255.084 113.814 254.698 113.469 254.311 113.125 254.056 112.658 253.972 112.148L246.682 68.3014 241.354 94.2468C241.232 94.7397 240.948 95.1774 240.549 95.4902 240.15 95.8029 239.656 95.9728 239.147 95.9725L228.897 95.9725C228.588 95.9854 228.283 95.9363 227.993 95.8276 227.706 95.719 227.444 95.5533 227.223 95.3403 226.999 95.1274 226.823 94.8719 226.703 94.589 226.581 94.3061 226.518 94.0017 226.518 93.6941 226.518 93.3864 226.581 93.082 226.703 92.7991 226.823 92.5162 226.999 92.2607 227.223 92.0478 227.444 91.835 227.706 91.6693 227.993 91.5607 228.283 91.4521 228.588 91.4027 228.897 91.4156L237.353 91.4156 244.9 56.532C245.025 56.0162 245.323 55.5596 245.746 55.24 246.169 54.9203 246.691 54.7578 247.221 54.7799 247.751 54.802 248.256 55.0077 248.653 55.3615 249.048 55.7152 249.307 56.1954 249.387 56.7197L256.832 101.447 263.173 79.3322C263.304 78.8664 263.583 78.4559 263.967 78.1619 264.351 77.8678 264.821 77.7059 265.307 77.7005L265.349 77.7005C265.83 77.7005 266.296 77.8521 266.685 78.1335 267.073 78.4147 267.363 78.8114 267.513 79.267L271.555 91.428 277.096 91.428C277.489 90.2313 278.206 89.1667 279.168 88.3517 280.127 87.5368 281.295 87.0031 282.54 86.8095 283.785 86.6161 285.058 86.7702 286.221 87.2551 287.385 87.7401 288.39 88.5367 289.128 89.5572 289.867 90.578 290.309 91.7827 290.408 93.0389 290.504 94.2949 290.251 95.5535 289.68 96.6754 289.107 97.7974 288.233 98.7392 287.16 99.3969 286.084 100.055 284.85 100.403 283.59 100.403L283.577 100.387Z" fill="#6C63FF" transform="matrix(1.00044 0 0 1 149.786 177.573)"/></g></g></svg>